/* XPM */
static char *result[] = {
/* columns rows colors chars-per-pixel */
"64 64 233 2 ",
"   c #1C1B20",
".  c #1D1C21",
"X  c #08070C",
"o  c #141318",
"O  c #070709",
"+  c #030305",
"@  c #040406",
"#  c black",
"$  c #060606",
"%  c gray4",
"&  c #0C0C0C",
"*  c #060604",
"=  c #020204",
"-  c #000002",
";  c #0A0A0C",
":  c #141416",
">  c #18181A",
",  c #222224",
"<  c #19191B",
"1  c #131315",
"2  c #1C1C1E",
"3  c #1F1F21",
"4  c #202022",
"5  c #2A2A2C",
"6  c #343436",
"7  c #38383A",
"8  c #3D3D3F",
"9  c #303032",
"0  c #353537",
"q  c #2F2F31",
"w  c #2E2E30",
"e  c #2C2C2E",
"r  c #262628",
"t  c #212123",
"y  c #1D1D1F",
"u  c #161618",
"i  c #0C0C0E",
"p  c #0E0E10",
"a  c #08080A",
"s  c #010103",
"d  c gray5",
"f  c gray1",
"g  c #040404",
"h  c #2D2C31",
"j  c #302F34",
"k  c #2C2B30",
"l  c #333237",
"z  c #313133",
"x  c #3E3E40",
"c  c #414143",
"v  c #444446",
"b  c #4B4B4B",
"n  c gray21",
"m  c #494949",
"M  c gray27",
"N  c gray28",
"B  c #3B3B39",
"V  c #3C3C3E",
"C  c #29292B",
"Z  c #2D2D2F",
"A  c #333335",
"S  c #232325",
"D  c #1E1E20",
"F  c #0B0B0D",
"G  c #151517",
"H  c #272729",
"J  c #171719",
"K  c #1B1B1D",
"L  c #242426",
"P  c #363638",
"I  c #3F3F41",
"U  c #515153",
"Y  c #454547",
"T  c #3A3A3A",
"R  c #535353",
"E  c #3F3F3F",
"W  c #444444",
"Q  c #393939",
"!  c gray23",
"~  c #3E3E3E",
"^  c #313035",
"/  c #16151A",
"(  c #1F1E23",
")  c #111113",
"_  c #1B1B1B",
"`  c #282828",
"'  c #0B0B0B",
"]  c #252525",
"[  c #161616",
"{  c gray12",
"}  c #181818",
"|  c #111111",
" . c #050507",
".. c #1A1A1C",
"X. c #101012",
"o. c #28282A",
"O. c #121214",
"+. c #252527",
"@. c #0F0F11",
"#. c #272727",
"$. c gray9",
"%. c gray14",
"&. c #2E2D32",
"*. c #0E0D12",
"=. c #100F14",
"-. c #1D1D1D",
";. c #202020",
":. c gray19",
">. c gray11",
",. c #191919",
"<. c #0E0E0E",
"1. c #010101",
"2. c #09090B",
"3. c #0D0D0F",
"4. c #060608",
"5. c #373739",
"6. c gray6",
"7. c #131313",
"8. c #1E1E1E",
"9. c gray8",
"0. c #070707",
"q. c #0F0E13",
"w. c #26252A",
"e. c #020202",
"r. c gray20",
"t. c #323234",
"y. c gray16",
"u. c #1B1A1F",
"i. c #27262B",
"p. c #19181D",
"a. c #2D2D2D",
"s. c gray17",
"d. c #222222",
"f. c #313131",
"g. c #2B2B2D",
"h. c #232323",
"j. c #101010",
"k. c #28272C",
"l. c #212025",
"z. c #07060B",
"x. c #232227",
"c. c gray2",
"v. c #0C0B10",
"b. c #0D0C11",
"n. c #201F24",
"m. c #3B3B3D",
"M. c #09080D",
"N. c #06050A",
"B. c #040308",
"V. c #121116",
"C. c #131217",
"Z. c #111015",
"A. c #1A191E",
"S. c #18171C",
"D. c #252429",
"F. c #2A292E",
"G. c #222126",
"H. c #2F2E33",
"J. c #0B0A0F",
"K. c #050409",
"L. c #17161B",
"P. c #2B2A2F",
"I. c #151419",
"U. c #29282D",
"Y. c #242328",
"T. c #1E1D22",
"R. c #0A090E",
"E. c #3E3D42",
"W. c #353439",
"Q. c #39393B",
"!. c #3B3A3F",
"~. c #37363C",
"^. c #343338",
"/. c #424244",
"(. c #39383D",
"). c #37363B",
"_. c #39383E",
"`. c #3A393F",
"'. c #18171D",
"]. c #121117",
"[. c #201F25",
"{. c #242329",
"}. c #323136",
"|. c #36353A",
" X c gray24",
".X c #343434",
"XX c #434343",
"oX c gray10",
"OX c #38373C",
"+X c #212026",
"@X c #0D0C12",
"#X c #16151B",
"$X c #2A292F",
"%X c gray15",
"&X c gray3",
"*X c gray7",
"=X c #2F2E34",
"-X c #030207",
";X c #3A393E",
":X c #3A3A3C",
">X c #020106",
",X c gray13",
"<X c #090909",
"1X c #474749",
"2X c #151515",
"3X c #2C2C2C",
"4X c #373737",
"5X c #000004",
"6X c #4F4F51",
"7X c #404042",
"8X c #434345",
"9X c #48484A",
"0X c #3F3E43",
"qX c #2F2F2F",
"wX c #2A2A2A",
"eX c gray18",
"rX c #353535",
"tX c #010005",
"yX c #49494B",
"uX c #4B4B4D",
"iX c #434247",
"pX c #4C4B50",
"aX c #47464B",
"sX c #454449",
"dX c #414045",
"fX c #464648",
"gX c #4C4C4E",
"hX c #323232",
"jX c gray22",
"kX c gray29",
"lX c gray26",
"zX c #3D3C41",
"xX c white",
/* pixels */
"  . X o O + + @ # $ % $ & # * * = O + - + ; : > , < 1 2 < 3 4 5 6 7 8 6 9 0 q w w e r r t , y u < i p a s O s + # $ d % d f g # ",
"h j k l z x c v b n m b M N B N c V 8 v 8 C Z A 7 3 S 5 A Z z , D - r F G C H H ; J v S K H 5 : L Z 9 P I x U Y T R E W Q ! ! ~ ",
"  ^ / ( ; ) q J _ ` ' ] [ { } | 9 w J y i 9 y 3 J 3 F + 4 5 < , G 2  .3 ..> X.r e t A K o.S L w D q O.J D +.@.< y y | ] #.f $.%.",
"&.h *.=., > y : -.;.:.>.,.<.1.] ; F 9 2.J X.> 5 ..L F z 5 ; 3 J K @ 3.@.: > K 4.C S 5 A : t 5.t 2 > 3.1 D : X.S 2.H 6.] 7.8.9.0.",
". h q.w.O J @.@.; = 8.$.e.$.r.,.q F 4.G e ..@.5.Z z t.a - + P 2.y J , t 3 5 X.0 D 8 ..e r 5.t.Z 4 G : D 2.) 9 @ - 3. .@.y.] 7.9.",
"u.i.  p.J J 5 < 3 y a.6.s.[ d.f.a p - t y < ..P 3.t.X.:  .y @.= O G S H 3 g.Z K  .+.> ..i e Z r S z u < : +.4 K C 3.r 1 h.>.#.j.",
"u.k.l.z.< > - H 2 y X.= $.>.# ;.O G 2.< p g.t.e t ..) 2.< 4 i G z e e 4 3.i H K o.a O 1 + , 6 o.H O 3.t p 1 < t.: 4 : X. ...a D ",
"( ^ x.=.@.P G 2.g.G @., ' 6.c.] g.< Z Z + a 3 x y r D X.C 5 o.< @ w G @.e 3 J p r e 9 +.u t.6 X.5 ..= o.) 7 q S ..J 6 < @.3.H C ",
"u.v.b.*.4.X.a 3.O a 2.2.= 3.; F ) ; p O.) u y t t t u 1 ..L 1 ..: ; ; J X.2 X.@.@.: 3.X.G 4 4 @.F a ) 2.2.O  .2. .= i - 4.p X.) ",
"i.k l n.3 A V o.z 7 t H r i y e 4 Z D J q X., o.r > o.L L ) w m.Z r r L g.e C 5.o.) 2.u H J x o.m.H q t.6 8 9 e o.H P a K S L +.",
"M.N.N.B.< =  .O O 2.- o.3 r C O O D O , 4.= 4.2.p y ;  .; 3.O = a X.e ..: @ p > H 4.@ @ = 1 +  .-  .O s 4.= 2.- X i.w.N.l.V.l.=.",
"o o C.n.J u @.X.) 3.+.L 4 r X.G +.K D q 3.< ..) ..J @.2.G 3.u > O.3 q < g.O.O.C O.X.K 1 = + K i 2 < C 2.O. .; ; Z.^ j v.p.q.o A.",
"4.+.Z  .S.D.x.n.n.&.N.D.. F.G.( u = < u y G X.: < t y @.p  .a H t G o.o.H 2.- a 1 F > @ p K ; 4 +.2.3.y L O e C A.H.h =.( / =.J.",
"3 s > O.l.K.*.x.=.D.C.L.P.D.I./ D O + 3.o.D 2.p 1 G O.F S  .- e 4 S g.r r J 2.G u L < 4 +.+ t ; ; 5 L 2.@ 2.G +.p.U.h C.( L.Y./ ",
"u t u D *.S.K.A.L.Z.V.P.h G.T.V.o.t o.X.2 a X.y : 5 t L ) o.2 4 ..1 H Z 4 3 : 4.y D 4.4.4.: G K C L F J  .) Y.J.R.J.E.l.=.=.X =.",
"i y ..L X R.=.U./ p.  o W.P.P.S.V...k. ., 2 O.@.@ H o.+.H Z , 3.O. .y e 2 : K g.4.4.y 2 K 3.J O.@.g.3 ..) y t.A ^ L.j j . Y.C.q.",
"2 ..4 u D y H Z t.5.8 m.x Q.8 ^ E.!.~.^.h P.k.i.Y.. L.C.F 1 s a 4.2.j.6.% | 0.c.g % 4. .R.X S.I.. u.D 3 ` s.:.n /.x Y I (.)._.`.",
"t.z : L 2 +.+.< K o.G 3 3.K Z Z '.].[.{.A.l h &.P.}.|.x.0 w c 8 8 7  XM .X` XXn .Xr.5.Q.j U.Y.E.x.U.D 3 _ ] ` ] oX9.4.; F.OX+X@X",
"4.w 2.@ : a 3 F K - y ) : y 2.; #X$X    / x.Y.k W./ x.H.O y ) s ..; D 3 %Xs.g c.oX&XG i U.x.T.V.4 4.4.@ o.) *Xj.:.-.u +.o   S.*.",
"q L O O Z Z G @.u J  .> 4.@.2 O.J.=Xl.. i.( P.|.  Y.. z.> 2 L < 4 t 3 J [ j.$.c.g -.F = j V.^.=.t - 4 4 > g.[ j.' $ r 4.}.  -X^.",
"e t ..K O.O p ; a O.t < y 1 Z ) p.n.|.D.j ( U.k F.p.o M.F @ 2 G p i ) u | -.*X{ | d X.J p u U.( t 2 4.u 1 O = i ) < t.3.x.P.V.A.",
"e t r p + i p ; 4.i H < A @.x S &.w.&.S.P.L.F.&.I.  w.T.+ K 4 t 1 q C u [ #.;.8.c.7. .z O @ OXi.+.F K @ +.;  . .m.@.> u ;Xl n.A.",
":Xo.+ O a < @.) u C t Z ; p > S l j G.V.T.q.x.k k.u.*.>X+.3.S @.+.@ X...d.$ ,Xg -.<X1 F < q   h , F a @ 2 O a S 1X+.r i B.U.o j ",
"x , +.a F D C 6 O.J 9 O.O., 2 > n.I.F.k.  i.P.}.n.h l.C.D D S 0 , K y 0 <.<.>.$.:.j.; O.: 4 (.0 , 2 @.r ..9 C p ) u O.t A.=.T.F.",
"A o.g.5 C r w o.L 3 : G 4 , 3 D K L t 1 < r C 5 K ..) J I.o J.q.b.>X1 a 2.@.2X8.-.>.,X,X, L w Z 5.] r H g.+.4 o.J O.> , L y ..4 ",
"S ..@.r y ..D 4 6 L t p D r 9 L S 2 O i 4 ) G 5 o., , e x.D.;X. &.R.3 q p a ,X-.y.*X,X,X1 ; O.2 <._ F G y 1 t.S 3 w u ..t A S ..",
", O.y y J i J 3.@ 3 ) 9 , u S G ..i  .1 a 4., @ O ; s - L.X K.p.N.>Xr H > > 0.*X<.d.{ ,XX.a K : >.;.,.8.S < b.  *.h n.w.u < F 4 ",
") F p 3  .) > S < +.p 0 4 L 3.p ..p u ..K a  .4 O.u J , q.x.R.S.M.B.A r < A 8.$.s.*X#.c.@.@.o.4.d e.3X9.G O M.N.k.F.n.^ i @.L O ",
"X.t > y O a K p ..2 S t.4 K i = c.| F 3  .3 i @ y L 2.1 T.n.x.T.i.b.i.h > D %.j.' j.%XoX4 K O.) oX{ &Xd a  .p.L.o F.;X&.; = s ) ",
"..3 3 @ 2.O. .G +.3.K 9 S J S O.% *XG ..G D K p G ; +., ( *.l.A.Y.S.x.^ , ) d _ | 1.e.| >  .< H s.d $ <Xs 2.u.S.C.Y.).j L 4 - @.",
"H @ o.A 9 - z 4.< - D z K ) i S oX# .Xc.G O < o.D S X.t *.V.P.>Xl.A.. l K ..2Xd.*X4X{ c.e.;.K 5 %Xs.T ;.1 r z.=.5XOX).F., 3.y J ",
") ; , ..J u r u p ; F 3 C 1 F < [ &X# ] O 3.: a 1 p t 4.=.o p.k.i.P.J.(.o.C %.2X0.s.% 2XH K y u 2 d.>.<Xt < T.q.p.@.W.5 4 1 r  .",
"6 w o.t , ....> [ ,.,X,X-.$.-.oXX.G : < : L 1 4 w S L H 5 t.q Q.5.6X7X8X8X9Xc I c c V 8 ^.0X(.9 g.S 2 S 2 2 ..) : %Xy 6.9.8.% 9.",
"r 8 Z L ..S A A qXW wXh..XeXh.wXq 4 0 8Xm.L q A Q.+.A r u ..G z 4Xs.J =  .Q.7 K p K T.o w.  l.D.m.J r +.+.7 q m.n ;.Q 3Xy..XqX;.",
"t e , , 1 ; ..2 4 J y.,.oX8.8.;...K 1 ) < D 1 : u 3 p O.a L ; S O A @.> y 1 C ; O.: G O o k k.w.o., 3 D 2.1 w > p p -.{ %.7.| rX",
"r g.y i r G D , S L h.;.%X_ j.| 2.X.O J 2.w : :XD L @ 5 e t r ....G 3 t s 7 t D C H t +.( Y.;X/ L D ..< G S +.5 X.@.-.,X&X6.g <X",
"g.g.2.+ A - = > 1 K X.4 ,X# eX1.1 - 8 t : @ o.H F < G K y +.- < G O.3.o.O K C 4.H :X5 0 = q !.h H -  . . .6 y S i 1 r O & [ d j.",
"..9 G > , a L O.2 ; o.K | oXwXoX2 p i : 0 u 2 w u 9 y ,  .L 2.O J S G 4 e C S +.2.m..., , r j w.w y ) @.4.L ..O.+., : 4 7.%XwX*X",
"2 t K o.O a e p 3.5  .X.5 6 p o.+ O. .F O.1 r 5.J t O.i 3 < < < ..7XS t p 1 G L A < y q o.C 0 y 3 o.G X.+.< @ C i p , 4 > a e O ",
"2 H 0 w ) , r 2.7 t o.5 0 2 ) a ) 2 s a H g.3 V 2 C 3 J C 1 9 L 6 S < @ 4 X.D r J > 9 ) Q.C 7 : o.+.> < 9 H r 5 o.u o.t.D 4 X.Z ",
"5 H D o.o.4 D 3 K S 3 D : t 3 o.5 H H e P Z 6 Q.m.6 :X0 A Q.5.P w 3 3 t q q 5 q Z w r H g.A w 4 o.4 r 3 K 4 3 J t G 3 G t r Z 5 ",
"p 1 ) o.G r 4 5 K o.p w , K ) +.G y , < O.> - X.@., 3.u 1 > S 8 q 4 o.i < +...2.G F , t O.L H @ u 3 t.+.u g.C L 4.K q a G 5 r K ",
"4.X.F s ) @.: a . 5XN.u.p.&.V.F.> a +.p , ; X.+.L y q C @.5 G X.Y.L.Z 2.r u u F O.= > i  ..., p a 3.- @.3 O 3.i B.U.k.S.l.X z.B.",
"> 2.t , a X.r 2 p.R.q.x.P.G.F.M.3 4 > K p 3.O.G G s ; p F ) G i R.=.H 1 H  .: g.X.3.4 ) O.i : ..J K L @.< 1 ..s J.l &.M.S.Y.=.S.",
"X.= g.) - 3 o.X.b.S.( n.w.l.w.x.a 1 X.< +.: > 2.J ..D @.p 1 r 1 -Xo h P.H y 4. .>  .a - 2 3.< O.; t : +.: r ; 2 b.k.^ x.x.i.N.P.",
"3.@.: +.t y , 9 (   -XG.i.i.p.q...> 4.@ 1 X.; K :Xg.; 3.+ = , ..X X &.D., 9 2 ; @ D ; ..u , X.y 2.2 p 9 O.q L u I.P.k.( I.n.K.C.",
"K F a G 4 4.( N.z.C.=.^ ^.x.p.J.u y L O.) 2 X.O...J : u 1 , O - R.Z.}.h Y.I.@.; 4 e C X.y > $.oX; ; , X.1 F o K.tX=.OXP.Z.T.z.A.",
"2.= 2.i - a K.M.=.S./ >Xj D.D.w.i  .5 t O.) 2 X.> @ F t s : z D X.w.b.&.k A.O a u X.r u = 2.3.s O 3.a D @ + u.X p.M.L.x.( l.L.X ",
"s.h.:.#.r.eX:Xt.6 8 1X9XY yX/.uXiXpX0XaXsXdXaXE.(.W.F.;Xi.U.&.+.3 t P Z H q S D D t G.G.x.w.D.z 6 o.H t.5.6 Q.m.1XV Y fXfXyXgXfX",
"wX X-.;.7.& 1 G 3 r J S i a A S w.I.L.L./ U.h / F.k A.k p.u.D.U.7 hXS 5 5 4 w u H 9 . W.I.k.P.k 5 H 2 O @.3 C +.C L G p J t., : ",
"-.wX` # 2X$ O.@ K 3 Z +.i ) K 6 C.V.X R.q.>Xj F.l.k.l   A.o w.w.u ) 1 Z g.q L @.7 t G H ^.Z.U.I.r K 4 - 2. .p O w o.1 = @.H J J ",
"3Xy.% $ eX$.C D K O.u t 4  .g.y ( T.u.V.N.F.D.^ n.I.V.p.L./ Y.F.C 4.< 5 u u 2.@.a ; K @ i.x.k A.S s F t p D J i < ..q F t G K K ",
"s.,.e.` # & ..; 4 @.@.G u < D D D r e 7 y 4.w Z C H : > O X.+.u 4 @.H q ..F < O y , 4.i D J h u.p i D ..4 X.; 2 ; > r q < r K r ",
"eX#.rX$.8.d F 4.F r O., S K D <  .= > J : H t C q J H L > < @.) = , @.> S 3 ) 4 , g.2 8 t.= F.u.q ) ) X.4.@ O 2.@ > L < X.e H 4.",
"jXs.| >.$.>.a @.t O z 4 S +.> 3.Z L u 2 P , C q o.< C K ) P - s r 1 ; Z ..D 2.1  .F < ) @.5 9 H 4 3....., p G X.I r O.G 1 3 w g.",
"~ h.T %.8.] D C w L ..S a i X...K ) ) ..u D D z 2 L r ) > C t q 9 D > D H g.+.< H t o.L t.w 9 7 A q t 4 L o.g.9 t 3 : O i G H : ",
"T kXW E N lX8 8Xv 8X, t.C 8 V P z Q.8 0 Q.m.P m.r 0 w z w P 9 Z q 9 C , 0 t.q P :X5.:X8Xc x /.I V 1Xv I :Xc 8 P 5.q q q V V 0 c ",
"*XoX} 9.-.&X, w 9 t.o.D F < 3 4.- p 1 J ..3.S G ; a t H > ; L 3 > @ S 5 t F w : @.y , a L 3.@.i , ) K D G H z e H q - y J G O p ",
"h.& ;.wX2X8.o.1 @.g.4 t.< w +.3 F G = 2.) J 2 p ..: @.4.X.3 O.@.. R.5 r u : p : O > 1 3 K < F 2 ..< o...> A w G t 9 D w 1 6 + @.",
"9.6.$ % 9.c.S  .) @ t , K < s ) ..+ J q = u s , X.< t ; @.D 4 @.5X=.S q J 3 u t J t p , O D ) 5 4.y ) - G K @ a - 6 +.9 4.u t ..",
"} d.9.$.[ c.> g.J + u 7 4 : K : 3...- 1 @ u > 1 3.4.) 4.K @.r = b.I.U.k L < G @.S u 1 3.r < @.O.) ..y 3 > : G 2.2.Z 5.e X.p @ + ",
"*X8.,X` | >.- S ; ; > 6 S ..> 2.-  .u J @.@.L F J 3.) t @.o.: O.V.N.x.k L > u 3.4 : D a G p 2 L : L ..K p  .3.O. .C A +.< : O X.",
"e.,.% c.h.<. .X.+ , + t.L H F 4.O L C ....O.5 : ; - O 5 - w + ; 5XX =.zXo B.3 @ t.4.+ r L u & 3X4.F 4.K i @ + 3.> e 0 t s - p o.",
"j.% g g 8.# : O...p 4.J C +.a 3.) u i L O.@ 2.= O O.2.; G O = 1 J.Y.B.( G.. < : @ u < F : u % { = p s  .s < p F ..- o.t.: a i G "
};
