/* XPM */
static char *_9163da38e6f4869af1196f574823caeaKEX4kmNYNXccsLv[] = {
/* columns rows colors chars-per-pixel */
"64 64 174 2 ",
"   c #2C0600",
".  c #2E0C00",
"X  c #320700",
"o  c #350D00",
"O  c #3A0E00",
"+  c #2E1200",
"@  c #351200",
"#  c #3B1300",
"$  c #3D1900",
"%  c #3A1E09",
"&  c #3F2105",
"*  c #410F00",
"=  c #411500",
"-  c #431A01",
";  c #491D00",
":  c #421E08",
">  c #481F09",
",  c #452102",
"<  c #4B2504",
"1  c #4D2905",
"2  c #46240B",
"3  c #4C250B",
"4  c #46280E",
"5  c #4D2A0C",
"6  c #522603",
"7  c #542A05",
"8  c #592E05",
"9  c #53250D",
"0  c #592709",
"q  c #542B0B",
"w  c #5A2D0B",
"e  c #5B3106",
"r  c #56310C",
"t  c #5C330C",
"y  c #5F380E",
"u  c #452510",
"i  c #4B2711",
"p  c #4D2C13",
"a  c #522712",
"s  c #542D13",
"d  c #5A2D13",
"f  c #572D18",
"g  c #5D2E1C",
"h  c #4F3014",
"j  c #563213",
"k  c #5C3412",
"l  c #5E3914",
"z  c #55321A",
"x  c #5B351B",
"c  c #5D391B",
"v  c #622E06",
"b  c #632F08",
"n  c #633404",
"m  c #693303",
"M  c #63340D",
"N  c #68360E",
"B  c #633A0E",
"V  c #6B3B0D",
"C  c #713F0E",
"Z  c #622F14",
"A  c #633512",
"S  c #683311",
"D  c #643A14",
"F  c #6A3C14",
"G  c #62341B",
"H  c #69371A",
"J  c #643C1B",
"K  c #6A3D1C",
"L  c #713F15",
"P  c #703F1C",
"I  c #5D3620",
"U  c #5D3A21",
"Y  c #643722",
"T  c #633D22",
"R  c #6A3D22",
"E  c #6B3D29",
"W  c #6E400F",
"Q  c #71420E",
"!  c #674016",
"~  c #6C4216",
"^  c #66411C",
"/  c #6C431C",
"(  c #6F491E",
")  c #734415",
"_  c #784315",
"`  c #73441C",
"'  c #7A461C",
"]  c #754A1D",
"[  c #7B4A1C",
"{  c #7C501F",
"}  c #664224",
"|  c #6C4423",
" . c #6D4925",
".. c #664428",
"X. c #6C442A",
"o. c #6E4A2A",
"O. c #734523",
"+. c #784725",
"@. c #744A23",
"#. c #7A4C24",
"$. c #72452B",
"%. c #744C2B",
"&. c #7A4D2A",
"*. c #765025",
"=. c #7C5225",
"-. c #77512C",
";. c #75522C",
":. c #76542F",
">. c #75512C",
",. c #7E5128",
"<. c #7A542F",
"1. c #7C532C",
"2. c #7F582F",
"3. c #6F4A31",
"4. c #744533",
"5. c #744630",
"6. c #734E33",
"7. c #744D32",
"8. c #784A33",
"9. c #7A4E31",
"0. c #7A4C32",
"q. c #7C4F30",
"w. c #794A36",
"e. c #7C4E37",
"r. c #7B4E32",
"t. c #735032",
"y. c #775031",
"u. c #775033",
"i. c #775532",
"p. c #755132",
"a. c #7F5231",
"s. c #7E5333",
"d. c #7A5731",
"f. c #7C5432",
"g. c #7F5934",
"h. c #7C5834",
"j. c #7F573D",
"k. c #7B543A",
"l. c #7D593B",
"z. c #814D1B",
"x. c #81521E",
"c. c #82511F",
"v. c #844E22",
"b. c #814E25",
"n. c #804E29",
"m. c #875321",
"M. c #815727",
"N. c #815124",
"B. c #895722",
"V. c #895525",
"C. c #8A5426",
"Z. c #8C5627",
"A. c #8C5A25",
"S. c #805329",
"D. c #84532A",
"F. c #82542B",
"G. c #855B29",
"H. c #845A2A",
"J. c #85582E",
"K. c #83592E",
"L. c #885E2C",
"P. c #89582F",
"I. c #805332",
"U. c #815534",
"Y. c #825C37",
"T. c #845B33",
"R. c #895B32",
"E. c #81543D",
"W. c #82593D",
"Q. c #895D38",
"!. c #905F36",
"~. c #8A602E",
"^. c #866033",
"/. c #886136",
/* pixels */
"] =.M.H.H.H.L.~.M.=.#.O.$.&.J ; ] ~ V V V n m m V V n n F K 0 = ' v.C.Z.C.m.B.A.c.[ { ' ] #.D = ` ~ V V m m m m m V V N S A 0 = ",
"#.#.#.] ~ V V V ~ F F K K | d O #.] ] ] ] ] [ [ L F F F / | w # ` ' [ ' ) C V Q ) W ~ F ! ` t O #.] ] ] ' _ [ [ _ ' ' ` O.K q = ",
"/ / F D B t t t 7 7 w D K $.x O ! / ( ] @.#.,.J.S.=.&.&.a.9.x $ K ` ` F N n n n e e t D ! | l $ ! / / ` ` ' #.D.` #.+.%.&.%.d O ",
"0 0 0 0 8 w t t A k J | $.8.Y = r l D D y y D / @.@.@.%.9.6.x $ w w t w 8 8 e t ! D ! | o.%.c # k l D D t t B F @.@.%.0.W.E.T : ",
"%.%.%.%.&.&.a.I.q.%.0.e.w.4.g # } } ^ J r r r t k l j z U T p #  . .@.%.:.<.g.Y.d.:.:.i.t.o.z @ }  .| ^ k r 7 t k w q s x x 2   ",
"R R R | $.%.&.&.%.$.$.$.E R f # %.>.>.o. .| |  .^ } c z x x i # T J | |  .%.%.:. .}  .o.} T j # o.%.%.o.| ^ / |  . .T x c U p $ ",
"0 0 w k D J J J 9 3 9 s 9 9 3 $ l l l l J J ^ ^ J J c s 5 5 2 # s r k k k k k k 1 < 1 5 5 5 5 $ j r k k l D D J l l k 5 3 5 3 $ ",
"# O # # = = # O # O # = # # = o $ $ # @ # # o o O $ $ # # $ $ o # # # $ $ $ # O $ # # # o # $ # $ $ # # $ # # o # - = # # $ - $ ",
"O./ ( ( J k 6 o 6 t J | | | | $.@./ / ` K B 6 # a.<.<.&.$.O.O.@./ O.&./ t t 7 # t k D K / ` / / @.O.@.` D A 6 O U.U.a.%.O.O.O.O.",
"t D O.@.| / t $ / / |  .O. . .` D n n n w t 8 ; t B S S B n n n t D O.O./ / M = K / ` @.#.` ` ` F N F B w t 7 = D D K F D S S N ",
"D ( 1.-.O. .k $ @.@.| O.@.*.#.] n M N N M D 7 O t A S F F F F F / / &.&.@.O.A * ` O.#.#.#.#.' ' M M F F B B 6 O w t M B N N N F ",
"*.1.2.@.| @.k #  .@.%.1.g.T.T.K.#.#.#.` O.&.K = @.@.O.@.#.#.D.J.Q.f.<.-.@.$.k O +.@.#.&.S.J.R.R.b.' #.@.@.@.D - &.&.&.,.S.S.P.!.",
"@.O.@.| | %.J $ q k k t k D / ( / F w 7 k | l o  .$.@.%.&.&.&.&.f.%.%.%.$.$.G = d w w w t D / ` O.B 8 w A K k # | ^ | | O./ ` ` ",
"D k l J T T s o X.X...c k ^ @.%.&.@.%.%.f.l.} - c J ..%.%.$.K D l j c T T T s # X.R J J D K ( O.<.@. .%.h.k.} - } } o.t.:./ D K ",
"5 , 3 9 3 3 : o x I z 3 < w l k l k T o.X.T p @ 4 p z x c k 0 < , & 2 i 2 u : o x z s 5 q 6 7 7 l k J } } } p . 4 2 p c k 1 < < ",
"- O # = # O = = O = # O = ; ; # $ @ # $ @ # $ # # @ @ @ # # # o $ @ @ @ @ @ $ # # # # @ # # $ $ $ # # o . $ , @ $ @ @ $ $ @ @ $ ",
"` ` ` ` / ` ` ` N 8 b H O.&.G # D B t e B F / F / t 7 6 6 q 1 - / ( ( ( / ! / ( t t r k | $.k = K D t 8 t D / ` ~ D t r 7 t q @ ",
"N.#.#.b.N.N.' ) ' ` +.&.&.&.G = @.] ` ~ ] =.N.N.' ~ K / K J s # &.&.=.=.=.[ ] ) ~ ! F / &.&.G = @.O.` ` #.#.b.N.' ` / / / ! q @ ",
"U.F.F.K.T.F.@.F F F | O.R R d O J ! F F ` &.S.S.#.#.&.&.&.9.G # a.,.,.F.K.1.] ~ ` / K K O.R s O J H K / #.#.S.J.n.#.#.%.%.%.c # ",
"/ | | @.O.( D t 7 q d z d x a O w t k t A K ` ` ` / R R R $.x O K K / O.O./ D A A A k d G G 9 O x d w w S K O.#.+.K K K ..o.x # ",
"j l J J J l l l c c T X.X.X.x # .. .$.| K | O.O.| R R G G E f X d A J J J D J J A J R R $.E g = $.X.R R R O.$.$.$.K J J G T s o ",
"J } o.o.| }  .%.t.t.k.j.k.6.I # %.9.0.0.q.U.U.I.q.0.w.4.X.X.x # R | $.$.$.$.%.&.%.e.E.E.E.8.g = 8.%.8.a.U.U.U.q.q.%.%.%.X.X.f # ",
"l l J c l l J ^ J J } T x x a # s k k D J | | K | R R R Y G f = G D J J J J J K R | | R Y G 3 O d d x J K K R J R J R Y G G s $ ",
"# # # # # # # # $ # $ o X # - # $ $ # # = ; = O = o O # O # $ o # # O # # = # o # # O X O = ; # - = # O O # # # # # # O o - - o ",
"O./ K A D O.A O | J A k D / O.O.<.2.2.2.f.%.t # J @.f.Y.U.<.%.$.@.( D t k / k # | J k k D / | | -.-.-.-.f.%.t # / @.f.Y.U.<.&.%.",
"/ ` ` / / @.A O D k w w w M A A / / / / @.@.k - D J J D A D D A / ( ( / !  .k # k k t 7 r t l D ! D B D ( O.k - J J J D D D D D ",
"#.S.S.#.#.#.A O A A S S M M N N t t t D  . .r # k k t r t D F D #.@.=.@. .@.k # k k D D D l D D B B y D ( / 7 @ k k t t A D K K ",
"S.&.@./ K O.k O K O.@.#.O.` ` ` #.@.( ( %.%.k $  .%.%.-.K.T.T.1.O.( ( / /  .l $ / | @.@.@.] O.#.=.*.( ( >.@.k $  . .%.f.T.Q.Q.U.",
"D t t k J  .D # %.0.U.U.&.@.@.@.` K t 7 w r , . } } } / | ( D r l r r k J  .c $ %.f.h.h.d.>.%.*.! D 7 1 r j < @ } } | | O.| H A ",
"l r k J ..%.G $ %.9.u.%. .^ J J K | |  .o.X.z - 6.6.o.} | | K A D t l J } $.x # 5.9.9.%.%.| / J / / ^ | o.o.z $ 6.5.X.X.R R K H ",
"j s z x x I s # z x x z s 5 1 5 ; q x J T I i @ z z s 5 q d w 0 d s z c x x s O I x x z s w q < 1 t c c U c 2 o z f f a 9 9 0 d ",
"$ # - $ $ $ - o # # $ # # # # $ = ; = O O $ = # o # $ $ = = # O O O # = # ; ; O = # # # # $ # O $ $ # X o $ $ # # $ = # O O O * ",
"` @.#.=.#.&.=.S.#.#.#.O.O.+.A # / F F N M n b b b n F S w w 6 = ` #.#.S.S.N.S.S.S.#.` K P +.H = ` ! N t n n n M M M w 0 A H 0 = ",
"#.N.N.#.) V V V ) L ` P P O.Z O #.#.] ] ] ' [ [ ' ' #.#.O.O.k = #.#.N.[ ' ) ) Q ) F F F K +.A O @.] @.' ' [ [ [ v.#.' ` +.O.d # ",
"D F F N t 8 8 e e e B J R $.x O / / ` ] ] #.b.D.#.` #.&.a.0.c O D D D B e 8 8 e 8 8 B J K $.G # D / ( @.#.#.S.J.n.#.+.$.0.%.s O ",
"r r t t r r t D D D J  .%.5.x O k l D D t t A F #.O.@.0.W.j.T - t t r r r r t t l D / o.%.$.x # k k l k t t D ` +.+.$.8.k.k.T : ",
"| |  . . .%.>.:.d.:.t.k.6.3.x @ }  .| ^ k r 7 t k w j x x x 3   } | | |  .%.>.:.:.:.h.k.6.X.z # X. .| J t r t l w w 9 s x I 2 . ",
"}  . .o.%.:.d.d.o.} X.X.} T s # %.>.>.%. .| | |  .....T x x s $ } ^ | o.:.d.h.h.} } X.X.} T s $ o.%.t.t.o.} | |  .o.T c I U p $ ",
"< 1 6 q t k k k < , 1 3 3 5 3 $ j r k l D D D J k k k 9 , 3 3 # , < 6 r k l k k < , < 3 3 5 3 $ j j k c J J J l k c s 3 3 3 : # ",
"$ $ $ $ $ $ # o $ # $ = # $ = O # # # # # # o X $ # $ # o - - @ $ $ $ - - $ o   - # # $ # - - O - $ # @ o o o o # $ $ O # $ $ # ",
"` ` @.` A t 6 = 7 t H O.+.$.O.| O.@.&.` D t 6 # a.Y.U.%.O.$.@.O./ &.&.F B A 7 # w t D / $.@.$.O.@.O.O./ D D 7 O a.U.U.&.O.| $.&.",
"M D ` ] ` / M ; K / O.O.O.` ` O.F N F B 8 t 7 ; t D D S B N N n t / @.` / ` w = / ` ` O.O.O.@.@.F N B t w t w = t A D D A M S S ",
"~ ` #.#.#.#.S = ` O.O.O.` ` #.#.N M N F B B 6 O t A D D F F L F F ] #.#.#.#.w O O.O.O.#.#.#.#.#.n n N F S A 6 O A A S F F P ` ` ",
"R.T.F.#.O.#.A O O.+.#.,.F.J.J.R.S.' ` @.#.&.D = $.@.@.@.#.=.D.J.S.F.=.#.&.#.t O O.O.&.F.J.T.R.R.#.` O.#.&.&.D = &.@.O.@.&.S.J.R.",
",.-.&.O.O.%.J $ 0 w w t t D / ] @.B 7 w D | k o  . .@.%.&.@.#.#.@.@.O.` %.%.D - 0 w w k D F / ` / A w w D K j o %.o. .%.<.&.&.#.",
"l k D J J J s # %.} J l l J  .-.1.$. .%.h.l.} $ c J } o.%./ D t t k l D T J 9 # o.} J J D /  .@.%.$.$.9.h.k.T $ T U } %.%.| D A ",
"< , < 5 3 2 : o x x s 5 < 1 r k k k J X...} p . p p j c c r < < , < < 3 3 3 $ o U x s 5 5 5 r r k x T X.} U p . p i h c c q 1 1 ",
"- @ # $ # @ $ $ o @ $ $ $ @ # # @ # # @ . $ $ @ $ @ @ # $ # @ # # # # @ # - - - @ # $ $ $ # @ @ @ @ # @ . @ $ @ $ @ @ $ # @ @ $ ",
"` ` ` ` ` ` ' ` N 8 8 M K O.Z O K B e 8 t D ~ / / D t r 0 t 0 # ! ~ ) ] ] ' ) ) n N N N O.&.A O ! B t t D ! / / @.B 7 0 7 w 1 # ",
"N.N.N.N.N.N.[ ) ) F ` O.&.&.H = @.` ) ) ] { =.=.] ` / / K K w O =.{ [ [ c.c.z.[ _ [ ' L O.&.D = -.] / ~ ] #.N.N.' F / ` O. .x $ ",
"K.F.1.F.J.F.@.~ ` / / | K K d O D D F / ] =.1.F.,.#.@.&.%.%.G = F.=.=.=.M.M.[ ) N ` ` S D K s $ / ! D F ` #.#.S.O.` +.$.$.%.d X ",
"( / / | ] ( D t l t k z d z 3 o t t t t B F ` &.@./ K R R X.G = ^ ^ / ] ] ~ M 8 6 w t k l J 9 @ k t w k D K ` ` &.&.$.$.$.w.T # ",
"k l l J D D D D J c J } X.X.x $ $.O.| K / / @.&.$.K J Y Y Y s O j l ^ ! D l t t k J | ..o.X.z # } | |  .O.+.+.$.H H G d g Y f X ",
"} |  . .|  .%.>.t.t.k.j.k.6.x $ $.%.&.a.U.U.a.<.q.%.8.8.$.E d # ^ |  .| ^ / @.d.:.d.h.u.u.6.z $ %.9.0.f.U.U.U.U.U.f.k.w.$.5.Y - ",
"D l l l J J J J | ^ | T c x 3 o w w t D K K K J K J R R G G s $ l l l l k l J | J J J c x z 3 # s k J J K K K K | R R Y x d 3 # ",
"$ # o @ # $ # o $ # # o X $ - $ ; $ O O # $ # O # # # # O ; ; o # # $ $ $ # o X o $ $ # # $ $ $ $ - ; ; = # O o = O # = # = - - ",
"@.` / B t K t # / J A A D K O.O.<.2.2.-.2.-.t o | @.1.f.g.f.%.| O.` / B t / t # K J A A D K O.$.U.T.T.2.f.1.k o J %.f.f.U.a.%.%.",
"` ` ` F / @.A = S M t w t B D D F ! D D ( @.D - D D D D D D D t ` ` ` ~ / @.A # A t t w w M S D D D D D ( @.D - D / J D D D D D ",
"S.#.#.` O.#.F = S S S F N D F F B B y B ( O.r @ t t r r t D ! ! F.N.#.#.@.&.D # D D S S S N F F e t r t /  .r @ t l r 7 y D D F ",
"#.` / F K O.A O K O.@.#.@.] ] #.=.*.] ( >.>.k $ | @.>.1.K.^.T.K.#.` ` K K O.k # | O.@.@.#.` ` ` =.#.( ( >.>.k $ | %.%.>.T./.T.K.",
"B r t A J | k # %.&.f.U.<.&.&.#./ l 7 1 r t < o ^ | | | / / D r t w t A J | l # %.t.a.f.<.&.@.@./ D 7 6 w k < @ } o. .| %.@.D D ",
"t t D | } o.c $ %.9.9.%.%.| / ! / / / | o...s - t.t.%. ./ ^ D t t k J ..X.o.x # o.6.6.%.} J J J K K K ..o.X.z : 3.u.o.}  .| J J ",
"r q j x x x s @ x x z z j q 1 1 6 w k J T x > o x x s 9 q q q 1 s s x x x I p @ z z z z p 5 1 q 6 q x J T x 2 @ p x s 3 9 q 6 0 ",
"$ @ @ @ @ $ $ . # @ @ @ @ @ @ @ # # o X o # $ $ # # # # # # # o @ o o @ @ % % + + @ $ @ @ @ # $ = # O o o # # # @ : : # $ $ O = "
};
