/* XPM */
static char *_7a6a5c30eef4251bf72050571370899rJWSQYsIxliyC6Mm[] = {
/* columns rows colors chars-per-pixel */
"64 64 138 2 ",
"   c #261402",
".  c #2A1701",
"X  c #2E1901",
"o  c #341C02",
"O  c #391F02",
"+  c #3E2102",
"@  c #432402",
"#  c #482602",
"$  c #4D2A03",
"%  c #542D03",
"&  c #582F01",
"*  c #573002",
"=  c #5B3102",
"-  c #623501",
";  c #673803",
":  c #6B3A03",
">  c #733F05",
",  c #754004",
"<  c #7D4404",
"1  c #814605",
"2  c #854903",
"3  c #8C4D03",
"4  c #924F01",
"5  c #965204",
"6  c #9B5503",
"7  c #9F5805",
"8  c #A25600",
"9  c #A35906",
"0  c #A25A06",
"q  c #A25905",
"w  c #A55A04",
"e  c #A45B05",
"r  c #A45A06",
"t  c #A75C05",
"y  c #A55902",
"u  c #A85A00",
"i  c #A85A01",
"p  c #AA5C02",
"a  c #AB5C02",
"s  c #AB5D03",
"d  c #AC5C00",
"f  c #AD5D00",
"g  c #AC5C01",
"h  c #AC5D01",
"j  c #AD5D01",
"k  c #AF5E00",
"l  c #AE5E01",
"z  c #AF5E01",
"x  c #AD5D02",
"c  c #AE5D02",
"v  c #AC5E03",
"b  c #AD5E03",
"n  c #AF5E02",
"m  c #AE5F02",
"M  c #AF5F03",
"N  c #A85C04",
"B  c #A95C04",
"V  c #A95D04",
"C  c #A85D06",
"Z  c #AE5F04",
"A  c #AD5D02",
"S  c #B05F01",
"D  c #B05F02",
"F  c #B05F02",
"G  c #AF6003",
"H  c #B16002",
"J  c #B26002",
"K  c #B36102",
"L  c #B56102",
"P  c #B46202",
"I  c #B56202",
"U  c #B66302",
"Y  c #B76302",
"T  c #B66303",
"R  c #B76403",
"E  c #B06004",
"W  c #B06105",
"Q  c #B16105",
"!  c #B26104",
"~  c #B36204",
"^  c #B46204",
"/  c #B46304",
"(  c #B76404",
")  c #B36203",
"_  c #B86402",
"`  c #B96402",
"'  c #B96502",
"]  c #B86403",
"[  c #B96503",
"{  c #BA6402",
"}  c #BA6502",
"|  c #BA6602",
" . c #BB6602",
".. c #BA6603",
"X. c #BB6603",
"o. c #BC6602",
"O. c #BD6602",
"+. c #BE6602",
"@. c #BE6702",
"#. c #BF6702",
"$. c #B86504",
"%. c #BC6604",
"&. c #BD6704",
"*. c #BB6503",
"=. c #BE6803",
"-. c #BF6804",
";. c #BE6804",
":. c #C06802",
">. c #C16902",
",. c #C26903",
"<. c #C36A02",
"1. c #C36A03",
"2. c #C46A02",
"3. c #C56B02",
"4. c #C46A03",
"5. c #C46B03",
"6. c #C66B02",
"7. c #C76C02",
"8. c #C76C03",
"9. c #C36A04",
"0. c #C46B04",
"q. c #C46B03",
"w. c #C86C03",
"e. c #C96D03",
"r. c #C96E03",
"t. c #CA6E03",
"y. c #CB6F03",
"u. c #CC6F03",
"i. c #CD6F03",
"p. c #C96E04",
"a. c #C96E03",
"s. c #CE7003",
"d. c #CF7104",
"f. c #CE7104",
"g. c #D07103",
"h. c #D17203",
"j. c #D17204",
"k. c #D07203",
/* pixels */
"o - - - - - - - - - = X % - - - - - - - = o * - - - - - - - - - + @ - - - - - - - - + $ - - - - - - - - - $ o - - - - - - - - = ",
"- h.w.7.7.7.7.7.7.w.( # P u.7.7.7.7.7.w.$.% ..w.7.7.7.7.7.7.7.w.; 1 h.7.7.7.7.7.7.w.; 5 j.7.7.7.7.7.7.7.w.3 = j.7.7.7.7.7.7.w.t ",
"= 6.y 8 8 8 8 8 8 y 0 @ H d 8 8 8 8 8 y 0 $ H d 8 8 8 8 8 8 8 D * < #.8 8 8 8 8 8 Z = 4 ..8 8 8 8 8 8 8 d < * 1.y 8 8 8 8 8 a 5 ",
"= 6.y y y y y y y u y @ H D y y y y y u t $ P D y y y y y y y H = < #.y y y y y y ! = 4 #.y y y y y y y d < * 6.y y y y y y d 5 ",
"% V 7 7 7 7 7 7 7 7 4 + 5 0 7 7 7 7 7 7 5 # 6 0 7 7 7 7 7 7 7 0 % : t 7 7 7 7 7 7 7 % < t 7 7 7 7 7 7 7 0 : $ V 7 7 7 7 7 7 0 2 ",
"X + + + + + o + + + + X + + + + + o + + + X + + + + + o + + + + o o + + + + o o + + o O + + + + o O + + + O X + + + + + o + + + ",
"..........3 = ..................a # q ..............a % 0 ..................- > =.............R = 2 =.................2 % ......",
"d d d d P 2 - 7.d d d d d d d d V @ D P d d d d d d V $ P P d d d d d d d P = < 1.d d d d d d / % 4 1.d d d d d d d P 1 & 7.d d ",
"8 8 8 8 a 1 - 1.8 8 8 8 8 8 8 y y @ d d 8 8 8 8 8 y t $ H d 8 8 8 8 8 8 8 d = < #.8 8 8 8 8 8 Z % 4 ..8 8 8 8 8 8 8 d < & 1.8 8 ",
"d d d d ! < = -.d d d d d d d d 0 @ a ! d d d d d d 0 $ d / d d d d d d d ! = < &.d d d d d d ! % 3 &.d d d d d d d ! < % -.d d ",
"% % % % % @ o % % % % % % % % % $ . $ % % % % % % % $ X $ % % % % % % % % % o + % % % % % % % % o @ % % % % % % % % % + X % % % ",
"@ 3 3 3 3 3 3 3 3 3 2 + < 3 3 3 3 3 3 3 2 # < 3 3 3 3 3 3 3 3 3 % * 3 3 3 3 3 3 3 3 % ; 3 3 3 3 3 3 3 3 3 : @ 3 3 3 3 3 3 3 3 < ",
"= h.#.#.#.#.#.#.#.1.! # ..6.#.#.#.#.#.1.! $ ..6.#.#.#.#.#.#.#.0.- 1 s.#.#.#.#.#.#.,.- 5 u.#.#.#.#.#.#.#.6.2 * d.#.#.#.#.#.#.1.7 ",
"= 6.8 8 8 8 8 8 8 y q @ H d 8 8 8 8 8 y 0 $ H d 8 8 8 8 8 8 8 d * < ..8 8 8 8 8 8 Z = 5 ..8 8 8 8 8 8 8 a < * 1.8 8 8 8 8 8 u 5 ",
"- w.d d d d d d d d t @ H P a d d d d d t $ R P a d d d d d d P = < 1.a d d d d d / = 5 ,.a d d d d d a P < * 7.d d d d d a H 5 ",
"@ 1 < < < < < < < < > o > < < < < < < < > O , < < < < < < < < < @ % 1 < < < < < < < @ - 1 < < < < < < < < = + 1 < < < < < < < ; ",
"$ % % % % # o % % % % % % % % % % X $ % % % % % % % % o $ % % % % % % % % % O O % % % % % % % % O @ % % % % % % % % % # o % % % ",
"6.1.1.1.7.3 - s.6.1.6.6.6.1.1.6./ # H w.1.6.6.1.1.6.( % P w.1.1.6.6.1.1.1.0.: < s.1.6.6.1.1.6.0.= 5 s.1.1.6.6.1.1.1.w.3 * d.6.1.",
"8 8 8 8 d 1 - 1.y 8 8 8 8 8 8 y t @ d d 8 8 8 8 8 y t $ H d 8 8 8 8 8 8 8 d = < #.8 8 8 8 8 8 Z % 4 ..8 8 8 8 8 8 8 d < & 1.y 8 ",
"y y y y d 2 - 6.y y y y y y y u y @ d d y y y y y u t $ P H y y y y y y y H = < #.y y y y y y ! % 4 #.y y y y y y y d < & 6.y y ",
"8 7 7 7 0 , % V 8 7 8 8 8 7 7 8 5 + 5 0 7 8 8 7 7 q 5 $ 6 t 7 7 8 8 7 7 7 0 % : V 7 8 8 7 7 8 7 $ < V 7 7 8 8 7 7 7 0 > $ V q 8 ",
"O # # # # @ o # # # # O # # # # # o # # # + # # # # # O # # # # + + # # # # O + # # + @ # # # # O + # # # # O # # # # @ o # # # ",
"% #.................a # y ..............d % y ..................; , #...............- 2 =.................2 % #...............8 ",
"= w.d d d d d d d d N @ P P d d d d d d t $ P P d d d d d d d P = < 1.d d d d d d / = 5 1.d d d d d d d P < * 7.d d d d d d ! 5 ",
"= 6.8 8 8 8 8 8 8 y q @ H d 8 8 8 8 8 y 0 $ H d 8 8 8 8 8 8 8 d = < ..8 8 8 8 8 8 Z = 4 ..8 8 8 8 8 8 8 d < * 1.8 8 8 8 8 8 u 5 ",
"= 1.Z d d d d d d H t @ d / d d d d d ! 0 $ H / d d d d d d d / * < -.d d d d d d ! = 4 &.d d d d d d d / < & ,.d d d d d d ! 5 ",
"X % % % % % % % % % $   $ % % % % % % % $ X % % % % % % % % % % o O % % % % % % % % o @ % % % % % % % % % + X % % % % % % % % $ ",
"2 2 2 2 2 : # 2 2 2 2 2 2 2 2 2 < O > 2 2 2 2 2 2 2 < @ , 2 2 2 2 2 2 2 2 2 % % 2 2 2 2 2 2 2 2 $ - 2 2 2 2 2 2 2 2 2 - + 2 2 2 ",
"-.-.-.-.0.3 - d.-.-.-.-.-.-.-.,.! # P 0.-.-.-.-.-.,.! % ..0.-.-.-.-.-.-.-.,.- 1 d.&.-.-.-.-.-.,.= 5 d.&.-.-.-.-.-.-.0.2 * d.-.-.",
"8 8 8 8 a 1 - ,.8 8 8 8 8 8 8 y y @ d a 8 8 8 8 8 8 0 $ H d 8 8 8 8 8 8 8 d = < ..8 8 8 8 8 8 Z % 4 ..8 8 8 8 8 8 8 u < & 1.8 8 ",
"a a a a H 2 - 7.d a a a a a a d N @ D P a a a a a d t $ P P a a a a d a a P = < 1.u a a a a a ! % 4 =.u a a a a a a H 1 * 7.d a ",
"1 1 1 1 1 = # 2 1 1 1 1 1 1 1 1 , o , 1 1 1 1 1 1 1 , + , 1 1 1 1 1 1 1 1 1 # * 2 1 1 1 1 1 1 < @ - 2 1 1 1 1 1 1 1 1 = @ 2 1 1 ",
"o % % % % % % % % % % X $ % % % % $ % % % o $ % % % % % % % % % + + % % % % % % % % + @ % % % % % % % % % # o % % % % % $ % % % ",
"= d.0.0.0.0.0.0.0.w.$.$ P w.0.0.0.0.0.w.$.% P w.0.0.0.0.0.0.0.w.: < j.0.0.0.0.7.0.w.- 5 d.0.0.0.0.0.0.0.w.3 * d.0.0.0.0.0.0.w.y ",
"= 6.y y y y y y y y t @ H d y y y y y y 0 $ H d y y y y y y y H * < #.y y y y y y ! = 4 ..y y y y y y y d < * 1.y y y y y y d 5 ",
"= w.y y y y y y y y y @ H d y y y y y y 0 $ P d y y y y y y y D = < #.y y y y y y ! = 5 #.y y y y y y y d < * 6.y y y y y y d 5 ",
"% ! 0 0 0 0 0 0 0 t 5 + 7 t 0 0 0 0 0 t 5 # 8 t 0 0 0 0 0 0 0 t % > Z 0 0 0 0 0 0 t % 2 Z 0 0 0 0 0 0 0 t > % G 0 0 0 0 0 0 t 2 ",
". @ @ @ @ + O @ @ @ + . + @ @ @ @ o + @ + X + @ @ @ @ O + @ @ @ o o @ @ @ @ + O @ @ X o @ @ @ @ O + @ @ @ o . @ @ @ @ + o @ + + ",
"G d d d H 2 % H ! ! d G d d d H q @ 5 ! Z G d d d G q $ 6 H d d G G d d D G - : / G G d d d G d * < H d d G G d d d H < % H G d ",
"d d d d ( 2 - w.D D d d d d d H V @ H $.d d d d d H V $ P ..d d d d d d D ..- 1 6.d d d d d d ( % 5 1.d d d d d d d P 1 * w.D d ",
"8 8 8 8 a 1 - 1.8 8 8 8 8 8 8 y y @ d d 8 8 8 8 8 y t $ H d 8 8 8 8 8 8 8 d = < ..8 8 8 8 8 8 Z % 4 ..8 8 8 8 8 8 8 a < & 1.8 8 ",
"d d d d ! 1 - ,.d d d d d d d d t @ a P d d d d d d t $ d P d d d d d d d ! = < -.d d d d d d ! % 3 &.d d d d d d d H < & ,.d d ",
"% % % % % @ o % % % % % % % % % $ . $ % % % % % % % $ o $ % % % % % % % % % o + % % % % % % % % o # % % % % % % % % % @ o % % % ",
"# 6 6 6 6 6 6 6 6 6 3 + 2 6 6 6 6 6 6 6 4 # 2 6 5 5 6 6 6 6 6 6 * = 6 6 6 6 6 6 6 6 % : 6 6 6 6 6 6 6 6 6 > # 6 6 5 6 6 6 6 6 3 ",
"= d.&.............&.! # P ,...........&.! $ ..,...............,.- 1 u.............,.- 5 w...............,.2 * d.............-.7 ",
"= 1.8 8 8 8 8 8 8 y q @ H d 8 8 8 8 8 y 0 $ H a 8 8 8 8 8 8 8 d * < ..8 8 8 8 8 8 Z = 4 ..8 8 8 8 8 8 8 a < * 1.8 8 8 8 8 8 u 5 ",
"= 7.d d d d d d d d t @ H P a d d d d d t $ P P a d d d d d a P = < 1.a d d d d a / = 5 1.a d a d d d a P < * 7.d d d d d a H 5 ",
"+ < > > > , , > > , ; X : , > > > , > , ; o : , > > > , > > > > + $ < > > > , , > > + * < > > > , , > > , % O , > > > , , > > - ",
"% * * * * $ o * * * * % * * * * % X % * * % * * * * % o % * * * * % * * * * + + * * & * * * * * O # * * * * % * * * * # X * * * ",
"6.6.6.6.w.5 - h.6.6.6.6.6.6.6.7.( # P w.6.6.6.6.6.7.$.% ..w.6.6.6.6.6.6.6.w.: 1 h.6.6.6.6.6.6.0.- 5 h.6.6.6.6.6.6.6.w.3 * h.6.6.",
"8 8 8 8 a 1 - 1.8 8 8 8 8 8 8 y y @ d d 8 8 8 8 8 y t $ H d 8 8 8 8 8 8 8 d = < #.8 8 8 8 8 8 Z % 4 ..8 y y 8 8 8 8 a < & 1.y 8 ",
"y y y y d 2 - 6.y y y y y y y u u @ D D y y y y y u t $ P H y u y y y y y H = < =.y y y y y y ! % 4 #.y u y y y y y d 1 & 6.y u ",
"5 5 5 5 6 : % 0 5 5 5 5 5 5 5 5 3 + 4 6 5 5 5 5 5 5 3 # 5 6 5 5 5 5 5 5 5 6 % : 0 5 5 5 5 5 5 5 $ < 7 5 5 5 5 5 5 5 6 : $ 0 5 5 ",
"o # # # # @ O # # # # o @ # # # # o @ # # o @ # # # # O @ # # # O O # # # # O + # # O + # # # # O + # # # + o # # # # @ O # # # ",
"* ,.#.#.#.#.#.#.#.=.d # y 1.#.#.#.#.#.=.G % a 1.#.#.#.#.#.#.#.=.; , ,.#.#.#.#.#.#.-.- 3 1.&.#.#.#.#.#.#.,.3 % ,.#.#.#.#.#.#.=.8 ",
"= w.d d d d d d a d t @ H P a d d d a d t $ P P a d d d d d a P = < 1.a d d d d a / = 4 1.a d d d d d a P < * 7.d d d d d a H 5 ",
"= 6.8 8 8 8 8 8 8 y q @ H d 8 8 8 8 8 y 0 $ P d 8 8 8 8 8 8 8 d = < ..8 8 8 8 8 8 Z = 5 ..8 8 8 8 8 8 8 d < * 1.8 8 8 8 8 8 a 5 ",
"= 1.d d d d d d d d 0 @ d ! d d d d d d 0 $ d ! d d d d d d d ! = < &.d d d d d d ! * 4 -.d d d d d d d ! < % ,.d d d d d d ! 5 ",
"X $ $ $ $ $ $ $ $ $ #   # $ $ $ $ $ $ $ # . $ $ $ $ $ $ $ $ $ $ o o $ $ $ $ $ $ $ $ X + $ $ $ $ $ $ $ $ $ + . $ $ $ $ $ $ $ $ # ",
"3 3 3 3 3 : $ 3 3 3 3 3 3 3 3 3 2 O < 3 3 3 3 3 3 3 2 # < 3 3 3 3 3 3 3 3 3 % * 4 3 3 3 3 3 3 3 $ ; 4 3 3 3 3 3 3 3 3 : @ 3 3 3 ",
"........=.3 - s...............#.! # P 1.............! % R 1...............,.- 1 w.............-.* 5 w...............1.2 * s.....",
"8 8 8 8 a 1 - 1.8 8 8 8 8 8 8 y y @ d a 8 8 8 8 8 8 0 $ H d 8 8 8 8 8 8 8 d = < ..8 8 8 8 8 8 Z % 4 ..8 8 8 8 8 8 8 u < & 1.8 8 ",
"a a a a ! 2 - 6.d a a a a a a d t @ d H a a a a a d t $ H P a a a a a a a / = < 1.a a a a a a ! % 4 #.a a a a a a a H < & 6.d a ",
"3 3 3 3 3 ; $ 3 3 3 3 3 3 3 3 3 < + 1 3 3 3 3 3 3 3 1 # 1 3 3 3 3 3 3 3 3 3 % - 3 3 3 3 3 3 3 2 $ : 3 3 3 3 3 3 3 3 3 ; # 3 3 3 "
};
