/* XPM */
static char *dfcc692e71d640f6c6978808d89b34b6eRHaXz5ip4Y7h8ZB[] = {
/* columns rows colors chars-per-pixel */
"64 64 103 2 ",
"   c #F3771D",
".  c #E14D2D",
"X  c #AB3D3B",
"o  c #7B4147",
"O  c #603B46",
"+  c #5C4F51",
"@  c #6B524F",
"#  c #6E524E",
"$  c #6D514E",
"%  c #655050",
"&  c #5E5352",
"*  c #6C584C",
"=  c #6E534D",
"-  c #F07120",
";  c #DB4B2E",
":  c #814046",
">  c #683B45",
",  c #704C4B",
"<  c #C04938",
"1  c #CE4834",
"2  c #CD4834",
"3  c #C74735",
"4  c #974241",
"5  c #71554B",
"6  c #CC692C",
"7  c #D04D32",
"8  c #E04C2E",
"9  c #B73F38",
"0  c #A93B3B",
"q  c #A43C3C",
"w  c #A03B3C",
"e  c #A23D3D",
"r  c #AF3D3A",
"t  c #B23C39",
"y  c #B13C39",
"u  c #AC3D3B",
"i  c #804448",
"p  c #70514D",
"a  c #D14D32",
"s  c #B93F37",
"d  c #DE4630",
"f  c #B03D39",
"g  c #AA3B3B",
"h  c #A33C3D",
"j  c #7A454A",
"k  c #6F504E",
"l  c #A83B3B",
"z  c #B13D39",
"x  c #A43C3D",
"c  c #7B454A",
"v  c #6F504D",
"b  c #D74531",
"n  c #9E3D3E",
"m  c #784349",
"M  c #6E504E",
"N  c #C84735",
"B  c #A0403E",
"V  c #7B4549",
"C  c #7C4549",
"Z  c #7B444A",
"A  c #623F48",
"S  c #634E4F",
"D  c #974341",
"F  c #744F4C",
"G  c #674F4F",
"H  c #5E5152",
"J  c #605251",
"K  c #6E554C",
"L  c #6F514D",
"P  c #6E504D",
"I  c #6C4F4D",
"U  c #6C514E",
"Y  c #734F4C",
"T  c #70504D",
"R  c #615251",
"E  c #984341",
"W  c #605051",
"Q  c #69574D",
"!  c #CD6A2C",
"~  c #824448",
"^  c #5D5152",
"/  c #6B534E",
"(  c #5C5152",
")  c #CE4734",
"_  c #794349",
"`  c #6A524F",
"'  c #595052",
"]  c #625151",
"[  c #70564B",
"{  c #6B514E",
"}  c #DD6D26",
"|  c #E14C2D",
" . c #B83F37",
".. c #814448",
"X. c #784449",
"o. c #633F48",
"O. c #644E4F",
"+. c #635050",
"@. c #5F5152",
"#. c #5B5051",
"$. c #5B5252",
"%. c #625050",
"&. c white",
/* pixels */
"  . X o O + @ # # # # # # # $ % & * = # # # # # # # # # # # # $ % & * = # # # # # # # # # # # # $ % & * = # # # # # # # # # # # ",
"- ; X : > , < 1 2 2 2 2 2 2 3 4 5 6 7 2 2 2 2 2 2 2 2 2 2 2 2 3 4 5 6 7 2 2 2 2 2 2 2 2 2 2 2 2 3 4 5 6 7 2 2 2 2 2 2 2 2 2 2 2 ",
"8 9 0 q w e r t y y y y y t u i p a s y y y y y y y y y y y t u i p a s y y y y y y y y y y y t u i p a s y y y y y y y y y y y ",
"d f 0 0 g 0 0 0 0 0 0 0 0 0 h j k 2 y l 0 0 0 0 0 0 0 0 0 0 0 h j k 2 y l 0 0 0 0 0 0 0 0 0 0 0 h j k 2 y l 0 0 0 0 0 0 0 0 0 0 ",
"d z 0 0 0 0 0 0 0 0 0 0 0 0 x c v 1 y 0 0 0 0 0 0 0 0 0 0 0 0 x c v 1 y 0 0 0 0 0 0 0 0 0 0 0 0 x c v 1 y 0 0 0 0 0 0 0 0 0 0 0 ",
"d z 0 0 0 0 0 0 0 0 0 0 0 0 x c v 1 y 0 0 0 0 0 0 0 0 0 0 0 0 x c v 1 y 0 0 0 0 0 0 0 0 0 0 0 0 x c v 1 y 0 0 0 0 0 0 0 0 0 0 0 ",
"d z 0 0 0 0 0 0 0 0 0 0 0 g x c v 1 t 0 0 0 0 0 0 0 0 0 0 0 g x c v 1 t 0 0 0 0 0 0 0 0 0 0 0 g x c v 1 t 0 0 0 0 0 0 0 0 0 0 0 ",
"b X h x x x x x x x x x x x n m M N u h x x x x x x x x x x x n m M N u h x x x x x x x x x x x n m M N u h x x x x x x x x x x ",
"B i j c c c V C C Z c c c c m A S D i j c c c c V C Z c c c c m A S D i j c c c c V C Z c c c c m A S D i j c c c c V C Z c c c ",
"F v k v v M G H J K L k v v P I U Y T k v v v M G R K L k v v P I U Y T k v v v M G R K L k v v P I U Y T k v v v M G R K L k v ",
"2 1 1 1 1 N E W Q ! a 2 1 1 1 1 1 2 1 1 1 1 1 N 4 5 ! a 2 1 1 1 1 1 2 1 1 1 1 1 N 4 5 ! a 2 1 1 1 1 1 2 1 1 1 1 1 N 4 5 ! a 2 1 ",
"y y y y t u ~ ^ / a s y y y y y y y y y y y t u i p a s y y y y y y y y y y y t u i p a s y y y y y y y y y y y t u i p a s y y ",
"0 0 0 0 0 h V ( @ ) y l 0 0 0 0 0 0 0 0 0 0 0 h j k 2 y l 0 0 0 0 0 0 0 0 0 0 0 h j k 2 y l 0 0 0 0 0 0 0 0 0 0 0 h j k 2 y l 0 ",
"0 0 0 0 0 x C ( @ 1 y 0 0 0 0 0 0 0 0 0 0 0 0 x c v 1 y 0 0 0 0 0 0 0 0 0 0 0 0 x c v 1 y 0 0 0 0 0 0 0 0 0 0 0 0 x c v 1 y 0 0 ",
"0 0 0 0 0 x C ( @ 1 y 0 0 0 0 0 0 0 0 0 0 0 0 x c v 1 y 0 0 0 0 0 0 0 0 0 0 0 0 x c v 1 y 0 0 0 0 0 0 0 0 0 0 0 0 x c v 1 y 0 0 ",
"0 0 0 0 g x C ( @ 1 t 0 0 0 0 0 0 0 0 0 0 0 g x c v 1 t 0 0 0 0 0 0 0 0 0 0 0 g x c v 1 t 0 0 0 0 0 0 0 0 0 0 0 g x c v 1 t 0 0 ",
"x x x x x n _ ( ` N u h x x x x x x x x x x x n m M N u h x x x x x x x x x x x n m M N u h x x x x x x x x x x x n m M N u h x ",
"Z c c c c m A ' ] D i j c c c V C Z c c c c c m A S D i j c c c V C Z c c c c c m A S D i j c c c V C Z c c c c c m A S D i j c ",
"[ L k v v P I { U Y T k v v M G R K L k v v v P I U Y T k v v M G R K L k v v v P I U Y T k v v M G R K L k v v v P I U Y T k v ",
"} 7 2 1 1 1 1 1 1 2 1 1 1 1 N 4 5 ! a 2 1 1 1 1 1 1 2 1 1 1 1 N 4 5 ! a 2 1 1 1 1 1 1 2 1 1 1 1 N 4 5 ! a 2 1 1 1 1 1 1 2 1 1 1 ",
"|  .y y y y y y y y y y y t u i p a s y y y y y y y y y y y t u i p a s y y y y y y y y y y y t u i p a s y y y y y y y y y y y ",
"d f l 0 0 0 0 0 0 0 0 0 0 0 h j k 2 y l 0 0 0 0 0 0 0 0 0 0 0 h j k 2 y l 0 0 0 0 0 0 0 0 0 0 0 h j k 2 y l 0 0 0 0 0 0 0 0 0 0 ",
"d z 0 0 0 0 0 0 0 0 0 0 0 0 x c v 1 y 0 0 0 0 0 0 0 0 0 0 0 0 x c v 1 y 0 0 0 0 0 0 0 0 0 0 0 0 x c v 1 y 0 0 0 0 0 0 0 0 0 0 0 ",
"d z 0 0 0 0 0 0 0 0 0 0 0 0 x c v 1 y 0 0 0 0 0 0 0 0 0 0 0 0 x c v 1 y 0 0 0 0 0 0 0 0 0 0 0 0 x c v 1 y 0 0 0 0 0 0 0 0 0 0 0 ",
"d z 0 0 0 0 0 0 0 0 0 0 0 g x c v 1 t 0 0 0 0 0 0 0 0 0 0 0 g x c v 1 t 0 0 0 0 0 0 0 0 0 0 0 g x c v 1 t 0 0 0 0 0 0 0 0 0 0 0 ",
"b X h x x x x x x x x x x x n m M N u h x x x x x x x x x x x n m M N u h x x x x x x x x x x x n m M N u h x x x x x x x x x x ",
"B i j c c c V C C Z c c c c m A S D i j c c c c V C Z c c c c m A S D i j c c c c V C Z c c c c m A S D i j c c c c V C Z c c c ",
"F v k v v M G H J K L k v v P I U Y T k v v v M G R K L k v v P I U Y T k v v v M G R K L k v v P I U Y T k v v v M G R K L k v ",
"2 1 1 1 1 N E W Q ! a 2 1 1 1 1 1 2 1 1 1 1 1 N 4 5 ! a 2 1 1 1 1 1 2 1 1 1 1 1 N 4 5 ! a 2 1 1 1 1 1 2 1 1 1 1 1 N 4 5 ! a 2 1 ",
"y y y y t u ~ ^ / a s y y y y y y y y y y y t u i p a s y y y y y y y y y y y t u i p a s y y y y y y y y y y y t u i p a s y y ",
"0 0 0 0 0 h V ( @ ) y l 0 0 0 0 0 0 0 0 0 0 0 h j k 2 y l 0 0 0 0 0 0 0 0 0 0 0 h j k 2 y l 0 0 0 0 0 0 0 0 0 0 0 h j k 2 y l 0 ",
"0 0 0 0 0 x C ( @ 1 y 0 0 0 0 0 0 0 0 0 0 0 0 x c v 1 y 0 0 0 0 0 0 0 0 0 0 0 0 x c v 1 y 0 0 0 0 0 0 0 0 0 0 0 0 x c v 1 y 0 0 ",
"0 0 0 0 0 x C ( @ 1 y 0 0 0 0 0 0 0 0 0 0 0 0 x c v 1 y 0 0 0 0 0 0 0 0 0 0 0 0 x c v 1 y 0 0 0 0 0 0 0 0 0 0 0 0 x c v 1 y 0 0 ",
"0 0 0 0 g x C ( @ 1 t 0 0 0 0 0 0 0 0 0 0 0 g x c v 1 t 0 0 0 0 0 0 0 0 0 0 0 g x c v 1 t 0 0 0 0 0 0 0 0 0 0 0 g x c v 1 t 0 0 ",
"x x x x x n _ ( ` N u h x x x x x x x x x x x n m M N u h x x x x x x x x x x x n m M N u h x x x x x x x x x x x n m M N u h x ",
"Z c c c c m A ' ] D i j c c c V C Z c c c c c m A S D i j c c c V C Z c c c c c m A S D i j c c c V C Z c c c c c m A S D i j c ",
"[ L k v v P I { U Y T k v v M G R K L k v v v P I U Y T k v v M G R K L k v v v P I U Y T k v v M G R K L k v v v P I U Y T k v ",
"} 7 2 1 1 1 1 1 1 2 1 1 1 1 N 4 5 ! a 2 1 1 1 1 1 1 2 1 1 1 1 N 4 5 ! a 2 1 1 1 1 1 1 2 1 1 1 1 N 4 5 ! a 2 1 1 1 1 1 1 2 1 1 1 ",
"|  .y y y y y y y y y y y t u i p a s y y y y y y y y y y y t u i p a s y y y y y y y y y y y t u i p a s y y y y y y y y y y y ",
"d f l 0 0 0 0 0 0 0 0 0 0 0 h j k 2 y l 0 0 0 0 0 0 0 0 0 0 0 h j k 2 y l 0 0 0 0 0 0 0 0 0 0 0 h j k 2 y l 0 0 0 0 0 0 0 0 0 0 ",
"d z 0 0 0 0 0 0 0 0 0 0 0 0 x c v 1 y 0 0 0 0 0 0 0 0 0 0 0 0 x c v 1 y 0 0 0 0 0 0 0 0 0 0 0 0 x c v 1 y 0 0 0 0 0 0 0 0 0 0 0 ",
"d z 0 0 0 0 0 0 0 0 0 0 0 0 x c v 1 y 0 0 0 0 0 0 0 0 0 0 0 0 x c v 1 y 0 0 0 0 0 0 0 0 0 0 0 0 x c v 1 y 0 0 0 0 0 0 0 0 0 0 0 ",
"d z 0 0 0 0 0 0 0 0 0 0 0 g x c v 1 t 0 0 0 0 0 0 0 0 0 0 0 g x c v 1 t 0 0 0 0 0 0 0 0 0 0 0 g x c v 1 t 0 0 0 0 0 0 0 0 0 0 0 ",
"b X h x x x x x x x x x x x n m M N u h x x x x x x x x x x x n m M N u h x x x x x x x x x x x n m M N u h x x x x x x x x x x ",
"B i j c c c V C C Z c c c c m A S D i j c c c c V C Z c c c c m A S D i j c c c c V C Z c c c c m A S D i j c c c c V C Z c c c ",
"F v k v v M G H J K L k v v P I U Y T k v v v M G R K L k v v P I U Y T k v v v M G R K L k v v P I U Y T k v v v M G R K L k v ",
"2 1 1 1 1 N E W Q ! a 2 1 1 1 1 1 2 1 1 1 1 1 N 4 5 ! a 2 1 1 1 1 1 2 1 1 1 1 1 N 4 5 ! a 2 1 1 1 1 1 2 1 1 1 1 1 N 4 5 ! a 2 1 ",
"y y y y t u ~ ^ / a s y y y y y y y y y y y t u i p a s y y y y y y y y y y y t u i p a s y y y y y y y y y y y t u i p a s y y ",
"0 0 0 0 0 h V ( @ ) y l 0 0 0 0 0 0 0 0 0 0 0 h j k 2 y l 0 0 0 0 0 0 0 0 0 0 0 h j k 2 y l 0 0 0 0 0 0 0 0 0 0 0 h j k 2 y l 0 ",
"0 0 0 0 0 x C ( @ 1 y 0 0 0 0 0 0 0 0 0 0 0 0 x c v 1 y 0 0 0 0 0 0 0 0 0 0 0 0 x c v 1 y 0 0 0 0 0 0 0 0 0 0 0 0 x c v 1 y 0 0 ",
"0 0 0 0 0 x C ( @ 1 y 0 0 0 0 0 0 0 0 0 0 0 0 x c v 1 y 0 0 0 0 0 0 0 0 0 0 0 0 x c v 1 y 0 0 0 0 0 0 0 0 0 0 0 0 x c v 1 y 0 0 ",
"0 0 0 0 g x C ( @ 1 t 0 0 0 0 0 0 0 0 0 0 0 g x c v 1 t 0 0 0 0 0 0 0 0 0 0 0 g x c v 1 t 0 0 0 0 0 0 0 0 0 0 0 g x c v 1 t 0 0 ",
"x x x x x n _ ( ` N u h x x x x x x x x x x x n m M N u h x x x x x x x x x x x n m M N u h x x x x x x x x x x x n m M N u h x ",
"Z c c c c m A ' ] D i j c c c V C Z c c c c c m A S D i j c c c V C Z c c c c c m A S D i j c c c V C Z c c c c c m A S D i j c ",
"[ L k v v P I { U Y T k v v M G R K L k v v v P I U Y T k v v M G R K L k v v v P I U Y T k v v M G R K L k v v v P I U Y T k v ",
"} 7 2 1 1 1 1 1 1 2 1 1 1 1 N 4 5 ! a 2 1 1 1 1 1 1 2 1 1 1 1 N 4 5 ! a 2 1 1 1 1 1 1 2 1 1 1 1 N 4 5 ! a 2 1 1 1 1 1 1 2 1 1 1 ",
"|  .y y y y y y y y y y y t u i p a s y y y y y y y y y y y t u i p a s y y y y y y y y y y y t u i p a s y y y y y y y y y y y ",
"d f l 0 0 0 0 0 0 0 0 0 0 0 h j k 2 y l 0 0 0 0 0 0 0 0 0 0 0 h j k 2 y l 0 0 0 0 0 0 0 0 0 0 0 h j k 2 y l 0 0 0 0 0 0 0 0 0 0 ",
"d z 0 0 0 0 0 0 0 0 0 0 0 0 x c v 1 y 0 0 0 0 0 0 0 0 0 0 0 0 x c v 1 y 0 0 0 0 0 0 0 0 0 0 0 0 x c v 1 y 0 0 0 0 0 0 0 0 0 0 0 ",
"d z 0 0 0 0 0 0 0 0 0 0 0 0 x c v 1 y 0 0 0 0 0 0 0 0 0 0 0 0 x c v 1 y 0 0 0 0 0 0 0 0 0 0 0 0 x c v 1 y 0 0 0 0 0 0 0 0 0 0 0 ",
"d z 0 0 0 0 0 0 0 0 0 0 0 g x c v 1 t 0 0 0 0 0 0 0 0 0 0 0 g x c v 1 t 0 0 0 0 0 0 0 0 0 0 0 g x c v 1 t 0 0 0 0 0 0 0 0 0 0 0 ",
"b X h x x x x x x x x x x x n m M N u h x x x x x x x x x x x n m M N u h x x x x x x x x x x x n m M N u h x x x x x x x x x x ",
"B ..V C C C C C C C C C C C X.o.O.E ..V C C C C C C C C C C C X.o.O.E ..V C C C C C C C C C C C X.o.O.E ..V C C C C C C C C C C ",
"+.@.H H H H H H H H H H H H H #.$.%.@.H H H H H H H H H H H H H #.$.%.@.H H H H H H H H H H H H H #.$.%.@.H H H H H H H H H H H "
};
