/* XPM */
static char *e81838c3fe9a4ca5d1f38a01f1e4a5e0vjP9I8pSJTOu5YVJ[] = {
/* columns rows colors chars-per-pixel */
"64 64 38 1 ",
"  c #000D0D",
". c #000D0E",
"X c #000C0E",
"o c #011316",
"O c #011215",
"+ c #000E0F",
"@ c #011413",
"# c #011514",
"$ c #011315",
"% c #053A46",
"& c #053A47",
"* c #053540",
"= c #011214",
"- c #054035",
"; c #06463D",
": c #053B45",
"> c #06404E",
", c #06414F",
"< c #06483B",
"1 c #074E43",
"2 c #06424D",
"3 c #06404F",
"4 c #06473B",
"5 c #06424C",
"6 c #06434B",
"7 c #074C44",
"8 c #075042",
"9 c #06463C",
"0 c #054036",
"q c #011414",
"w c #000E0E",
"e c #011313",
"r c #074F42",
"t c #074D42",
"y c #074D43",
"u c #075041",
"i c #074F41",
"p c white",
/* pixels */
"         ...XX         ...XX           ...XX           ...XX    ",
"oooooooooO++@#$ooooooooO++@#$ooooooooooO++@#$ooooooooooO++@#$ooo",
"%%%%%%%%&*=@-;:%%%%%%%&*=@-;:%%%%%%%%%&*=@-;:%%%%%%%%%&*=@-;:%%%",
">>>>>>>>,&$#<123>>>>>>,&$#<123>>>>>>>>,&$#<123>>>>>>>>,&$#<123>>",
">>>>>>>>>%$#412>>>>>>>>%$#412>>>>>>>>>>%$#412>>>>>>>>>>%$#412>>>",
"5552>>>>>%$#41625552>>>%$#4162555552>>>%$#4162555552>>>%$#416255",
"111723>>,&$#<811111723,&$#<81111111723,&$#<81111111723,&$#<81111",
"4449:%%%&*=@0<444449:%&*=@0<44444449:%&*=@0<44444449:%&*=@0<4444",
"##qq$$$$$=.w@#####qq$$$=.w@#######qq$$$=.w@#######qq$$$=.w@#####",
"X.eq$$$$$$oo$$$=..eq$$$$oo$$$$$=..eq$$$$oo$$$$$=..eq$$$$oo$$$$$$",
"X@-;:%%%%%%%%%&*=@-;:%%%%%%%%%&*=@-;:%%%%%%%%%&*=@-;:%%%%%%%%%%%",
"X#<123>>>>>>>>,&$#<123>>>>>>>>,&$#<123>>>>>>>>,&$#<123>>>>>>>>>>",
"X#412>>>>>>>>>>%$#412>>>>>>>>>>%$#412>>>>>>>>>>%$#412>>>>>>>>>>>",
"X#4162555552>>>%$#4162555552>>>%$#4162555552>>>%$#4162555552>>>>",
"X#<81111111723,&$#<81111111723,&$#<81111111723,&$#<81111111723>>",
"X@0<44444449:%&*=@0<44444449:%&*=@0<44444449:%&*=@0<44444449:%%%",
" w@#######qq$$$=.w@#######qq$$$=.w@#######qq$$$=.w@#######qq$$$$",
"oo$$$$$=..eq$$$$oo$$$$$=..eq$$$$oo$$$$$=..eq$$$$oo$$$$$=..eq$$$$",
"%%%%%%&*=@-;:%%%%%%%%%&*=@-;:%%%%%%%%%&*=@-;:%%%%%%%%%&*=@-;:%%%",
">>>>>>,&$#<123>>>>>>>>,&$#<123>>>>>>>>,&$#<123>>>>>>>>,&$#<123>>",
">>>>>>>%$#412>>>>>>>>>>%$#412>>>>>>>>>>%$#412>>>>>>>>>>%$#412>>>",
"5552>>>%$#4162555552>>>%$#4162555552>>>%$#4162555552>>>%$#416255",
"111723,&$#<81111111723,&$#<81111111723,&$#<81111111723,&$#<81111",
"4449:%&*=@0<44444449:%&*=@0<44444449:%&*=@0<44444449:%&*=@0<4444",
"##qq$$$=.w@#######qq$$$=.w@#######qq$$$=.w@#######qq$$$=.w@#####",
"X.eq$$$$oo$$$$$=..eq$$$$oo$$$$$=..eq$$$$oo$$$$$=..eq$$$$oo$$$$$$",
"X@-;:%%%%%%%%%&*=@-;:%%%%%%%%%&*=@-;:%%%%%%%%%&*=@-;:%%%%%%%%%%%",
"X#<123>>>>>>>>,&$#<123>>>>>>>>,&$#<123>>>>>>>>,&$#<123>>>>>>>>>>",
"X#412>>>>>>>>>>%$#412>>>>>>>>>>%$#412>>>>>>>>>>%$#412>>>>>>>>>>>",
"X#4162555552>>>%$#4162555552>>>%$#4162555552>>>%$#4162555552>>>>",
"X#<81111111723,&$#<81111111723,&$#<81111111723,&$#<81111111723>>",
"X@0<44444449:%&*=@0<44444449:%&*=@0<44444449:%&*=@0<44444449:%%%",
" w@#######qq$$$=.w@#######qq$$$=.w@#######qq$$$=.w@#######qq$$$$",
"oo$$$$$=..eq$$$$oo$$$$$=..eq$$$$oo$$$$$=..eq$$$$oo$$$$$=..eq$$$$",
"%%%%%%&*=@-;:%%%%%%%%%&*=@-;:%%%%%%%%%&*=@-;:%%%%%%%%%&*=@-;:%%%",
">>>>>>,&$#<123>>>>>>>>,&$#<123>>>>>>>>,&$#<123>>>>>>>>,&$#<123>>",
">>>>>>>%$#412>>>>>>>>>>%$#412>>>>>>>>>>%$#412>>>>>>>>>>%$#412>>>",
"5552>>>%$#4162555552>>>%$#4162555552>>>%$#4162555552>>>%$#416255",
"111723,&$#<81111111723,&$#<81111111723,&$#<81111111723,&$#<81111",
"4449:%&*=@0<44444449:%&*=@0<44444449:%&*=@0<44444449:%&*=@0<4444",
"##qq$$$=.w@#######qq$$$=.w@#######qq$$$=.w@#######qq$$$=.w@#####",
"X.eq$$$$oo$$$$$=..eq$$$$oo$$$$$=..eq$$$$oo$$$$$=..eq$$$$oo$$$$$$",
"X@-;:%%%%%%%%%&*=@-;:%%%%%%%%%&*=@-;:%%%%%%%%%&*=@-;:%%%%%%%%%%%",
"X#<123>>>>>>>>,&$#<123>>>>>>>>,&$#<123>>>>>>>>,&$#<123>>>>>>>>>>",
"X#412>>>>>>>>>>%$#412>>>>>>>>>>%$#412>>>>>>>>>>%$#412>>>>>>>>>>>",
"X#4162555552>>>%$#4162555552>>>%$#4162555552>>>%$#4162555552>>>>",
"X#<81111111723,&$#<81111111723,&$#<81111111723,&$#<81111111723>>",
"X@0<44444449:%&*=@0<44444449:%&*=@0<44444449:%&*=@0<44444449:%%%",
" w@#######qq$$$=.w@#######qq$$$=.w@#######qq$$$=.w@#######qq$$$$",
"oo$$$$$=..eq$$$$oo$$$$$=..eq$$$$oo$$$$$=..eq$$$$oo$$$$$=..eq$$$$",
"%%%%%%&*=@-;:%%%%%%%%%&*=@-;:%%%%%%%%%&*=@-;:%%%%%%%%%&*=@-;:%%%",
">>>>>>,&$#<123>>>>>>>>,&$#<123>>>>>>>>,&$#<123>>>>>>>>,&$#<123>>",
">>>>>>>%$#412>>>>>>>>>>%$#412>>>>>>>>>>%$#412>>>>>>>>>>%$#412>>>",
"5552>>>%$#4162555552>>>%$#4162555552>>>%$#4162555552>>>%$#416255",
"111723,&$#<81111111723,&$#<81111111723,&$#<81111111723,&$#<81111",
"4449:%&*=@0<44444449:%&*=@0<44444449:%&*=@0<44444449:%&*=@0<4444",
"##qq$$$=.w@#######qq$$$=.w@#######qq$$$=.w@#######qq$$$=.w@#####",
"X.eq$$$$oo$$$$$=..eq$$$$oo$$$$$=..eq$$$$oo$$$$$=..eq$$$$oo$$$$$$",
"X@-;:%%%%%%%%%&*=@-;:%%%%%%%%%&*=@-;:%%%%%%%%%&*=@-;:%%%%%%%%%%%",
"X#<123>>>>>>>>,&$#<123>>>>>>>>,&$#<123>>>>>>>>,&$#<123>>>>>>>>>>",
"X#412>>>>>>>>>>%$#412>>>>>>>>>>%$#412>>>>>>>>>>%$#412>>>>>>>>>>>",
"X#4162555552>>>%$#4162555552>>>%$#4162555552>>>%$#4162555552>>>>",
"X#4rtyyyyyt72>>%$#4rtyyyyyt72>>%$#4rtyyyyyt72>>%$#4rtyyyyyt72>>>",
"X#4uiiiiiiit5>>%$#4uiiiiiiit5>>%$#4uiiiiiiit5>>%$#4uiiiiiiit5>>>"
};
